<svg width="18" height="18" viewBox="0 0 18 18" fill="none" xmlns="http://www.w3.org/2000/svg">
<g id="Comment Solid">
<path id="Subtract" fill-rule="evenodd" clip-rule="evenodd" d="M4.5 3C3.25736 3 2.25 4.00736 2.25 5.25V10.5C2.25 11.7426 3.25736 12.75 4.5 12.75H4.79781C4.84625 12.75 4.89171 12.7734 4.91987 12.8128L6.40972 14.8986C6.56869 15.1212 6.90476 15.1042 7.04046 14.8667L8.20681 12.8256C8.23352 12.7788 8.28322 12.75 8.33705 12.75H13.5C14.7426 12.75 15.75 11.7426 15.75 10.5V5.25C15.75 4.00736 14.7426 3 13.5 3H4.5ZM9.1875 9C9.70527 9 10.125 8.58027 10.125 8.0625C10.125 7.54473 9.70527 7.125 9.1875 7.125C8.66973 7.125 8.25 7.54473 8.25 8.0625C8.25 8.58027 8.66973 9 9.1875 9ZM6.375 8.0625C6.375 8.58027 5.95527 9 5.4375 9C4.91973 9 4.5 8.58027 4.5 8.0625C4.5 7.54473 4.91973 7.125 5.4375 7.125C5.95527 7.125 6.375 7.54473 6.375 8.0625ZM12.75 9C13.2678 9 13.6875 8.58027 13.6875 8.0625C13.6875 7.54473 13.2678 7.125 12.75 7.125C12.2322 7.125 11.8125 7.54473 11.8125 8.0625C11.8125 8.58027 12.2322 9 12.75 9Z" fill="#97A1AF"/>
</g>
</svg>
