<svg width="24" height="24" viewBox="0 0 24 24" fill="none" xmlns="http://www.w3.org/2000/svg">
<g id="Edit 1">
<path id="Vector" d="M12 3.99985H6C4.89543 3.99985 4 4.89528 4 5.99985V17.9998C4 19.1044 4.89543 19.9998 6 19.9998H18C19.1046 19.9998 20 19.1044 20 17.9998V11.9998M18.4142 8.41405L19.5 7.32829C20.281 6.54724 20.281 5.28092 19.5 4.49988C18.7189 3.71883 17.4526 3.71883 16.6715 4.49989L15.5858 5.58563M18.4142 8.41405L12.3779 14.4504C12.0987 14.7296 11.7431 14.9199 11.356 14.9974L8.41422 15.5857L9.00257 12.644C9.08001 12.2568 9.27032 11.9012 9.54951 11.622L15.5858 5.58563M18.4142 8.41405L15.5858 5.58563" stroke="#141C24" stroke-width="1.5" stroke-linecap="round" stroke-linejoin="round"/>
</g>
</svg>
