<svg width="20" height="20" viewBox="0 0 20 20" fill="none" xmlns="http://www.w3.org/2000/svg">
<g id="Email">
<g id="Vector">
<path d="M8.10478 9.52882L1.66675 6.18744C1.80428 5.05217 2.83574 4.1665 4.09068 4.1665H15.9095C17.1644 4.1665 18.1959 5.05217 18.3334 6.18744L11.904 9.52882C10.692 10.1568 9.30815 10.1568 8.10478 9.52882Z" fill="#637083"/>
<path d="M18.3334 7.49984V13.4594C18.3334 14.7717 17.244 15.8332 15.8973 15.8332H4.10284C2.75613 15.8332 1.66675 14.7717 1.66675 13.4594V7.49984L7.4825 10.6426C8.28023 11.0772 9.13801 11.2946 10.0044 11.2946C10.8622 11.2946 11.7199 11.0772 12.5262 10.6426L18.3334 7.49984Z" fill="#CED2DA"/>
</g>
</g>
</svg>
