<svg width="20" height="20" viewBox="0 0 20 20" fill="none" xmlns="http://www.w3.org/2000/svg">
<path d="M2.5 5.83333C2.5 4.45262 3.61929 3.33333 5 3.33333H15C16.3807 3.33333 17.5 4.45262 17.5 5.83333V11.6667C17.5 13.0474 16.3807 14.1667 15 14.1667H9.26339C9.20358 14.1667 9.14835 14.1987 9.11868 14.2506L7.82273 16.5185C7.67196 16.7824 7.29855 16.8013 7.12191 16.554L5.46652 14.2365C5.43523 14.1927 5.38472 14.1667 5.3309 14.1667H5C3.61929 14.1667 2.5 13.0474 2.5 11.6667V5.83333Z" fill="#CED2DA"/>
<path d="M11.0418 8.54167C11.0418 9.11696 10.5755 9.58333 10.0002 9.58333C9.42487 9.58333 8.9585 9.11696 8.9585 8.54167C8.9585 7.96637 9.42487 7.5 10.0002 7.5C10.5755 7.5 11.0418 7.96637 11.0418 8.54167Z" fill="#637083"/>
<path d="M15.2083 8.54167C15.2083 9.11696 14.742 9.58333 14.1667 9.58333C13.5914 9.58333 13.125 9.11696 13.125 8.54167C13.125 7.96637 13.5914 7.5 14.1667 7.5C14.742 7.5 15.2083 7.96637 15.2083 8.54167Z" fill="#637083"/>
<path d="M6.87484 8.54167C6.87484 9.11696 6.40847 9.58333 5.83317 9.58333C5.25787 9.58333 4.7915 9.11696 4.7915 8.54167C4.7915 7.96637 5.25787 7.5 5.83317 7.5C6.40847 7.5 6.87484 7.96637 6.87484 8.54167Z" fill="#637083"/>
</svg>
