<svg width="24" height="24" viewBox="0 0 24 24" fill="none" xmlns="http://www.w3.org/2000/svg">
<g id="Info">
<path id="Subtract" fill-rule="evenodd" clip-rule="evenodd" d="M22 12C22 17.5228 17.5228 22 12 22C6.47715 22 2 17.5228 2 12C2 6.47715 6.47715 2 12 2C17.5228 2 22 6.47715 22 12ZM11 11C11 10.4477 11.4477 10 12 10C12.5523 10 13 10.4477 13 11V17C13 17.5523 12.5523 18 12 18C11.4477 18 11 17.5523 11 17V11ZM12 6C11.4477 6 11 6.44772 11 7C11 7.55228 11.4477 8 12 8C12.5523 8 13 7.55228 13 7C13 6.44772 12.5523 6 12 6Z" fill="#0052CC"/>
</g>
</svg>
