<svg width="64" height="64" viewBox="0 0 64 64" fill="none" xmlns="http://www.w3.org/2000/svg">
<path fill-rule="evenodd" clip-rule="evenodd" d="M32 4.07767C16.579 4.07767 4.0777 16.5789 4.0777 32C4.0777 47.4211 16.579 59.9223 32 59.9223C47.4211 59.9223 59.9224 47.4211 59.9224 32C59.9224 16.5789 47.4211 4.07767 32 4.07767ZM3.92236 32C3.92236 16.4931 16.4932 3.92233 32 3.92233C47.5069 3.92233 60.0777 16.4931 60.0777 32C60.0777 47.5069 47.5069 60.0777 32 60.0777C16.4932 60.0777 3.92236 47.5069 3.92236 32Z" fill="#D0D5DD"/>
<path fill-rule="evenodd" clip-rule="evenodd" d="M32 24.1558C27.6675 24.1558 24.1553 27.668 24.1553 32.0005C24.1553 36.3329 27.6675 39.8451 32 39.8451C36.3325 39.8451 39.8447 36.3329 39.8447 32.0005C39.8447 27.668 36.3325 24.1558 32 24.1558ZM24 32.0005C24 27.5822 27.5817 24.0005 32 24.0005C36.4183 24.0005 40 27.5822 40 32.0005C40 36.4187 36.4183 40.0005 32 40.0005C27.5817 40.0005 24 36.4187 24 32.0005Z" fill="#D0D5DD"/>
<path fill-rule="evenodd" clip-rule="evenodd" d="M32 26.6402C29.0402 26.6402 26.6408 29.0396 26.6408 31.9994C26.6408 34.9592 29.0402 37.3586 32 37.3586C34.9599 37.3586 37.3593 34.9592 37.3593 31.9994C37.3593 29.0396 34.9599 26.6402 32 26.6402ZM26.4855 31.9994C26.4855 28.9538 28.9544 26.4848 32 26.4848C35.0456 26.4848 37.5146 28.9538 37.5146 31.9994C37.5146 35.045 35.0456 37.514 32 37.514C28.9544 37.514 26.4855 35.045 26.4855 31.9994Z" fill="#D0D5DD"/>
<path d="M31.9224 0H32.0777V64H31.9224V0Z" fill="#D0D5DD"/>
<path d="M64 31.9219L64 32.0772L-6.79012e-09 32.0772L0 31.9219L64 31.9219Z" fill="#D0D5DD"/>
<path d="M53.2039 0H53.3592V64H53.2039V0Z" fill="#D0D5DD"/>
<path d="M21.2815 0H21.4368V64H21.2815V0Z" fill="#D0D5DD"/>
<path d="M42.5631 0H42.7185V64H42.5631V0Z" fill="#D0D5DD"/>
<path d="M10.6407 0H10.7961V64H10.6407V0Z" fill="#D0D5DD"/>
<path d="M64 53.2031L64 53.3585L-6.79012e-09 53.3585L0 53.2031L64 53.2031Z" fill="#D0D5DD"/>
<path d="M64 21.2812L64 21.4366L-6.79012e-09 21.4366L0 21.2812L64 21.2812Z" fill="#D0D5DD"/>
<path d="M64 42.5625L64 42.7178L-6.79012e-09 42.7178L0 42.5625L64 42.5625Z" fill="#D0D5DD"/>
<path d="M64 10.6406L64 10.796L-6.79012e-09 10.796L0 10.6406L64 10.6406Z" fill="#D0D5DD"/>
</svg>
