<?xml version="1.0" encoding="utf-8"?>
<!-- Generator: Adobe Illustrator 26.0.3, SVG Export Plug-In . SVG Version: 6.00 Build 0)  -->
<svg version="1.1" id="Layer_1" xmlns="http://www.w3.org/2000/svg" xmlns:xlink="http://www.w3.org/1999/xlink" x="0px" y="0px"
	 viewBox="0 0 1000 1000" style="enable-background:new 0 0 1000 1000;" xml:space="preserve">
<style type="text/css">
	.st0{fill:#4E2A84;}
	.st1{fill:#FFFFFF;}
</style>
<g>
	<g>
		<g>
			<path class="st0" d="M385.15,519.33c3.72-0.71,7.02-2.12,9.47-4.36c2.78-2.53,4.45-6.09,4.44-10.48v-0.14
				c0-3.8-1.52-7.37-4.04-9.89c-3.21-3.2-8.36-5.18-14.66-5.18h-20.94c-0.24,0-0.47,0.1-0.63,0.26c-0.17,0.17-0.26,0.4-0.26,0.63
				v49.86c0,0.24,0.1,0.47,0.26,0.63c0.17,0.17,0.4,0.26,0.63,0.26h3.7c0.24,0,0.47-0.1,0.63-0.26c0.17-0.17,0.26-0.4,0.26-0.63
				v-19.76h14.98l15.62,20.31c0.17,0.22,0.43,0.35,0.71,0.35h4.7c0.34,0,0.65-0.19,0.8-0.5c0.15-0.31,0.11-0.67-0.09-0.94
				L385.15,519.33z M389.78,512.31c-2.39,1.8-5.83,2.82-9.85,2.82h-15.92v-20.65h16.13c4.39,0,7.77,1.02,10.01,2.75
				c2.23,1.73,3.41,4.14,3.42,7.25v0.14C393.56,507.97,392.17,510.5,389.78,512.31z"/>
			<path class="st0" d="M441.36,489.44c-0.15-0.32-0.46-0.52-0.81-0.52h-3.56c-0.35,0-0.67,0.2-0.81,0.52l-23.22,50.22
				c-0.13,0.28-0.11,0.6,0.06,0.86c0.16,0.26,0.45,0.41,0.75,0.41h3.85c0.35,0,0.67-0.21,0.81-0.52l6.1-13.44h28.27l6.1,13.44
				c0.14,0.32,0.46,0.52,0.81,0.52h4.06c0.3,0,0.59-0.16,0.75-0.41c0.16-0.26,0.19-0.58,0.06-0.86L441.36,489.44z M450.41,521.83
				h-23.51l11.78-25.8L450.41,521.83z"/>
			<path class="st0" d="M485.64,489.28h-3.7c-0.24,0-0.47,0.1-0.63,0.26c-0.17,0.17-0.26,0.4-0.26,0.63v49.86
				c0,0.24,0.1,0.47,0.26,0.63c0.17,0.17,0.4,0.26,0.63,0.26h3.7c0.24,0,0.47-0.1,0.63-0.26c0.17-0.17,0.26-0.4,0.26-0.63v-49.86
				c0-0.24-0.1-0.47-0.26-0.63C486.1,489.37,485.87,489.28,485.64,489.28z"/>
			<path class="st0" d="M525.28,512.37c-5.85-1.19-9.37-2.59-11.31-4.2c-1.93-1.6-2.48-3.33-2.5-5.83v-0.14c0-2.32,1.06-4.39,3-5.95
				c1.94-1.55,4.78-2.56,8.28-2.56c5.31,0.01,9.73,1.48,14.3,5.41c0.18,0.16,0.42,0.24,0.67,0.21c0.24-0.02,0.46-0.14,0.62-0.33
				l2.35-2.92c0.15-0.19,0.22-0.42,0.19-0.66c-0.03-0.24-0.14-0.45-0.33-0.6c-5.15-4.15-10.23-6.27-17.66-6.25
				c-4.81,0-9.02,1.48-12.05,3.98c-3.03,2.49-4.87,6.04-4.87,10.02v0.14c-0.02,3.96,1.33,7.21,4.24,9.63
				c2.9,2.42,7.24,4.05,13.29,5.28c5.61,1.12,9.02,2.45,10.92,4c1.88,1.55,2.45,3.24,2.47,5.73v0.14c-0.01,2.58-1.14,4.77-3.16,6.39
				c-2.03,1.61-4.98,2.62-8.55,2.62c-7.14-0.02-11.87-2.21-17.27-7.17c-0.18-0.16-0.41-0.25-0.65-0.24
				c-0.24,0.01-0.47,0.12-0.63,0.31l-2.42,2.78c-0.32,0.37-0.29,0.93,0.08,1.25c6.09,5.45,12.51,8.22,20.69,8.21
				c4.98,0,9.31-1.44,12.43-3.99c3.12-2.54,4.99-6.23,4.98-10.51V527c0.02-3.83-1.33-7.02-4.18-9.4
				C535.35,515.21,531.12,513.57,525.28,512.37z"/>
			<path class="st0" d="M596.62,535.72h-31.23v-18.23l27.67,0c0.24,0,0.47-0.1,0.63-0.26c0.17-0.17,0.26-0.4,0.26-0.63v-3.42
				c0-0.24-0.1-0.47-0.26-0.63c-0.17-0.17-0.4-0.26-0.63-0.26h-27.67v-17.8l30.88,0c0.24,0,0.47-0.1,0.63-0.26
				c0.17-0.17,0.26-0.4,0.26-0.63v-3.42c0-0.24-0.1-0.47-0.26-0.63c-0.17-0.17-0.4-0.26-0.63-0.26h-35.48
				c-0.24,0-0.47,0.1-0.63,0.26c-0.17,0.17-0.26,0.4-0.26,0.63v49.86c0,0.24,0.1,0.47,0.26,0.63c0.17,0.17,0.4,0.26,0.63,0.26h35.83
				c0.24,0,0.47-0.1,0.63-0.26c0.17-0.17,0.26-0.4,0.26-0.63v-3.42c0-0.24-0.1-0.47-0.26-0.63
				C597.08,535.82,596.85,535.72,596.62,535.72z"/>
			<path class="st0" d="M683.17,489.28h-3.85c-0.38,0-0.72,0.24-0.84,0.6l-14.8,41.9l-13.79-42.03c-0.12-0.37-0.46-0.62-0.85-0.62
				h-2.85c-0.39,0-0.73,0.25-0.85,0.62l-13.78,42.03l-14.8-41.9c-0.13-0.36-0.46-0.6-0.84-0.6h-4.13c-0.29,0-0.56,0.14-0.73,0.38
				c-0.17,0.24-0.21,0.54-0.11,0.82l18.09,50.22c0.13,0.36,0.46,0.59,0.84,0.59h2.99c0.38,0,0.72-0.25,0.85-0.61l13.75-40.8
				l13.76,40.8c0.12,0.36,0.46,0.61,0.85,0.61h2.99c0.38,0,0.71-0.24,0.84-0.59l18.09-50.22c0.1-0.27,0.06-0.58-0.11-0.82
				S683.46,489.28,683.17,489.28z"/>
			<path class="st0" d="M705.46,489.28h-3.71c-0.24,0-0.47,0.1-0.63,0.26c-0.17,0.17-0.26,0.4-0.26,0.63v49.86
				c0,0.24,0.1,0.47,0.26,0.63c0.17,0.17,0.4,0.26,0.63,0.26h3.71c0.24,0,0.47-0.1,0.63-0.26c0.17-0.17,0.26-0.4,0.26-0.63v-49.86
				c0-0.24-0.1-0.47-0.26-0.63C705.93,489.37,705.7,489.28,705.46,489.28z"/>
			<path class="st0" d="M745.1,512.37c-5.85-1.19-9.37-2.59-11.31-4.2c-1.93-1.6-2.48-3.33-2.5-5.83v-0.14c0-2.32,1.06-4.39,3-5.95
				c1.94-1.55,4.78-2.56,8.28-2.56c5.32,0.01,9.73,1.48,14.3,5.41c0.18,0.16,0.42,0.24,0.67,0.21c0.24-0.02,0.46-0.14,0.62-0.33
				l2.35-2.92c0.15-0.19,0.22-0.42,0.19-0.66c-0.03-0.24-0.14-0.45-0.33-0.6c-5.15-4.15-10.23-6.27-17.66-6.25
				c-4.81,0-9.02,1.48-12.05,3.98c-3.03,2.49-4.87,6.04-4.87,10.02v0.14c-0.02,3.96,1.33,7.21,4.24,9.63
				c2.9,2.42,7.24,4.05,13.29,5.28c5.6,1.12,9.01,2.45,10.91,4c1.88,1.55,2.45,3.24,2.47,5.73v0.14c-0.01,2.58-1.14,4.77-3.16,6.39
				c-2.03,1.61-4.98,2.62-8.55,2.62c-7.14-0.02-11.86-2.21-17.27-7.17c-0.18-0.16-0.41-0.25-0.65-0.24
				c-0.24,0.01-0.47,0.12-0.62,0.31l-2.42,2.78c-0.32,0.37-0.29,0.93,0.08,1.25c6.09,5.45,12.5,8.22,20.68,8.21
				c4.98,0,9.31-1.44,12.43-3.99c3.12-2.54,4.99-6.23,4.98-10.51V527c0.02-3.83-1.33-7.02-4.18-9.4
				C755.17,515.21,750.94,513.57,745.1,512.37z"/>
			<path class="st0" d="M817.07,535.98c-0.17-0.17-0.4-0.26-0.63-0.26h-31.23v-18.23l27.67,0c0.24,0,0.47-0.1,0.63-0.26
				c0.17-0.17,0.26-0.4,0.26-0.63v-3.42c0-0.24-0.1-0.47-0.26-0.63c-0.17-0.17-0.4-0.26-0.63-0.26h-27.67v-17.8l30.88,0
				c0.24,0,0.47-0.1,0.63-0.26c0.17-0.17,0.26-0.4,0.26-0.63v-3.42c0-0.24-0.1-0.47-0.26-0.63c-0.17-0.17-0.4-0.26-0.63-0.26h-35.47
				c-0.24,0-0.47,0.1-0.63,0.26c-0.17,0.17-0.26,0.4-0.26,0.63v49.86c0,0.24,0.1,0.47,0.26,0.63c0.17,0.17,0.4,0.26,0.63,0.26h35.83
				c0.24,0,0.47-0.1,0.63-0.26c0.17-0.17,0.26-0.4,0.26-0.63v-3.42C817.33,536.38,817.24,536.15,817.07,535.98z"/>
		</g>
	</g>
	<g>
		<path class="st0" d="M339.2,432.65c0-5.19-0.45-9.89-1.01-13.74c0-0.25-0.01-0.4-0.01-0.42c-0.01-0.27-0.08-0.52-0.17-0.76
			c-0.88-5.53-1.92-9.01-1.94-9.09c-0.29-0.97-1.16-1.67-2.17-1.75c-1.01-0.08-1.98,0.47-2.42,1.38
			c-3.11,6.42-7.93,11.85-13.75,15.67c-5.82,3.82-12.62,6.02-19.75,6.02c-0.28,0-0.56,0-0.85-0.01c-5.8-0.14-11.62-1.41-17.6-2.7
			c-5.98-1.28-12.13-2.58-18.6-2.59c-6.47,0-12.62,1.3-18.6,2.59c-5.98,1.29-11.8,2.56-17.6,2.7c-0.28,0.01-0.56,0.01-0.85,0.01
			c-7.12,0-13.93-2.2-19.75-6.02c-5.82-3.82-10.64-9.26-13.75-15.67c-0.45-0.92-1.4-1.47-2.42-1.38c-1.02,0.08-1.88,0.77-2.17,1.75
			c-0.04,0.15-3.13,10.42-3.13,24.02c0,6.79,0.77,14.42,3.14,22.02c2.12,6.81,5.54,13.61,10.8,19.67c-0.35,1.95-0.54,3.95-0.54,5.99
			c0,0.21,0.01,0.42,0.02,0.64c-0.05,0.19-0.08,0.39-0.08,0.6l0,46.61c0,35.86,29.07,64.93,64.94,64.94l0,0
			c35.86,0,64.93-29.07,64.94-64.94v-44.24c0-0.26-0.05-0.51-0.13-0.75c0.08-0.94,0.13-1.89,0.13-2.86c0-2.07-0.2-4.09-0.55-6.05
			c5.23-6.05,8.64-12.82,10.75-19.61C338.42,447.07,339.2,439.44,339.2,432.65z M201.43,428.07c6.57,4.31,14.31,6.83,22.46,6.83
			c0.32,0,0.64,0,0.97-0.01c6.44-0.16,12.56-1.53,18.52-2.81c5.96-1.29,11.76-2.48,17.56-2.48c0,0,0,0,0,0v0
			c5.8,0,11.6,1.19,17.56,2.48c5.96,1.28,12.08,2.65,18.52,2.81c0.32,0.01,0.65,0.01,0.97,0.01c8.15,0,15.9-2.52,22.46-6.83
			c4.8-3.15,8.97-7.27,12.25-12.08c0.19,1.01,0.38,2.12,0.56,3.33c0,1.05-0.07,3.39-0.57,6.3c-0.75,4.42-2.49,10.12-6.27,14.77
			c-1.89,2.33-4.28,4.42-7.37,6.04c-3.09,1.62-6.9,2.77-11.66,3.14c-0.33,0.03-0.63,0.12-0.91,0.26c-4.34-2.03-9.17-3.17-14.28-3.17
			c-14.12,0-26.21,8.7-31.22,21.02c-5.01-12.33-17.09-21.02-31.22-21.02c-5.11,0-9.94,1.14-14.28,3.17
			c-0.28-0.14-0.58-0.23-0.91-0.26c-6.35-0.51-11-2.38-14.52-4.91c-2.64-1.9-4.67-4.21-6.23-6.67c-2.35-3.7-3.65-7.78-4.34-11.24
			c-0.69-3.46-0.78-6.3-0.78-7.46c0-0.19,0-0.33,0-0.43c0.13-0.84,0.26-1.64,0.39-2.38c0.03-0.17,0.06-0.33,0.09-0.5
			C192.45,420.8,196.62,424.92,201.43,428.07z M260.93,569.46L260.93,569.46c-7.34,0-14.19-2.05-20.03-5.61c0,0,0,0,0,0
			c-2.63-1.6-5.05-3.51-7.22-5.68c-6.98-6.98-11.29-16.6-11.29-27.26v-17.7c2.37,0.53,4.83,0.82,7.36,0.82
			c6.56,0,12.69-1.88,17.87-5.13c1.2,1.45,3.24,4.02,5.23,7c1.46,2.18,2.89,4.58,3.93,6.87c1.05,2.29,1.69,4.48,1.71,6.07
			c0.03,1.34,1.13,2.42,2.47,2.42c1.34,0,2.44-1.07,2.47-2.42c0.02-1.65,0.7-3.93,1.82-6.29c1.66-3.57,4.21-7.34,6.33-10.18
			c1.06-1.42,2.02-2.61,2.71-3.44c0.01-0.01,0.02-0.02,0.03-0.03c5.18,3.25,11.3,5.13,17.87,5.13c2.51,0,4.95-0.28,7.3-0.8v17.68
			c0,10.65-4.31,20.27-11.29,27.26C281.21,565.15,271.59,569.45,260.93,569.46z M320.93,480.34c0,7.95-3.21,15.12-8.42,20.32
			c-5.21,5.21-12.38,8.42-20.32,8.42c-7.95,0-15.12-3.21-20.32-8.42c-5.21-5.21-8.42-12.38-8.42-20.32c0-7.95,3.21-15.12,8.42-20.33
			c5.21-5.21,12.38-8.42,20.32-8.42c7.95,0,15.12,3.21,20.32,8.42C317.71,465.23,320.92,472.4,320.93,480.34z M260.97,520.07
			c-1.89-3.94-4.49-7.76-6.66-10.66c-0.77-1.02-1.47-1.92-2.08-2.68c3.85-2.36,6.49-5.22,8.2-7.67c0.2-0.28,0.37-0.55,0.54-0.82
			c0.17,0.27,0.35,0.54,0.54,0.82c1.71,2.45,4.35,5.32,8.2,7.67c-1.2,1.49-2.8,3.58-4.43,5.97
			C263.75,514.95,262.21,517.48,260.97,520.07z M209.43,460.02c5.21-5.21,12.38-8.42,20.32-8.42c7.95,0,15.12,3.21,20.32,8.42
			c5.21,5.21,8.42,12.38,8.42,20.33c0,7.95-3.21,15.12-8.42,20.32c-5.21,5.21-12.38,8.42-20.32,8.42c-7.95,0-15.12-3.21-20.32-8.42
			c-5.21-5.21-8.42-12.38-8.42-20.32C201.01,472.4,204.22,465.23,209.43,460.02z M190.52,453.21c-1.67-5.37-2.49-10.83-2.78-15.99
			c1.03,2.13,2.32,4.27,3.95,6.29c2.27,2.8,5.2,5.36,8.92,7.3c2.46,1.29,5.28,2.3,8.44,2.96c-4.85,3.78-8.64,8.86-10.84,14.72
			C194.63,463.7,192.17,458.5,190.52,453.21z M200.94,528.19v-30.38c3.81,6.26,9.6,11.18,16.5,13.89l0,19.21
			c0,15.2,7.8,28.56,19.6,36.34v15.98c-6.96-3.03-13.24-7.32-18.54-12.62C207.65,559.75,200.94,544.76,200.94,528.19z
			 M260.93,588.18c-6.62,0-12.99-1.09-18.94-3.07v-15.05c5.73,2.78,12.15,4.33,18.94,4.33l0,0c6.82,0,13.26-1.57,19.01-4.37v15.06
			C273.97,587.08,267.58,588.18,260.93,588.18L260.93,588.18z M320.93,528.19c0,16.57-6.71,31.56-17.57,42.42
			c-5.28,5.28-11.54,9.56-18.47,12.59v-15.99c11.77-7.78,19.54-21.13,19.54-36.3v-18.57c0-0.2-0.03-0.39-0.08-0.58
			c6.93-2.68,12.75-7.59,16.58-13.84V528.19z M323.7,468.43c-2.2-5.83-5.98-10.89-10.81-14.66c4.76-1,8.7-2.79,11.9-5.1
			c3.21-2.31,5.66-5.11,7.52-8.04c0.68-1.08,1.28-2.17,1.82-3.27c-0.3,5.11-1.12,10.51-2.77,15.83
			C329.7,458.48,327.26,463.66,323.7,468.43z"/>
		<path class="st0" d="M229.75,498.21c8.49,0,15.38-6.89,15.38-15.38c0-8.49-6.89-15.38-15.38-15.38c-8.49,0-15.38,6.89-15.38,15.38
			C214.37,491.32,221.26,498.21,229.75,498.21z M233.23,471.44c3.47,0,6.29,2.81,6.29,6.29c0,3.47-2.81,6.29-6.29,6.29
			c-3.47,0-6.29-2.81-6.29-6.29C226.95,474.25,229.76,471.44,233.23,471.44z M223.04,486.72c1.44,0,2.61,1.17,2.61,2.61
			s-1.17,2.61-2.61,2.61s-2.61-1.17-2.61-2.61S221.59,486.72,223.04,486.72z"/>
		<path class="st0" d="M292.18,467.45c-8.49,0-15.38,6.89-15.38,15.38c0,8.49,6.89,15.38,15.38,15.38c8.49,0,15.38-6.89,15.38-15.38
			C307.56,474.34,300.68,467.45,292.18,467.45z M285.02,491.25c-1.44,0-2.61-1.17-2.61-2.61s1.17-2.61,2.61-2.61
			s2.61,1.17,2.61,2.61S286.47,491.25,285.02,491.25z M295.66,484.01c-3.47,0-6.29-2.81-6.29-6.29c0-3.47,2.81-6.29,6.29-6.29
			c3.47,0,6.29,2.81,6.29,6.29C301.95,481.19,299.14,484.01,295.66,484.01z"/>
	</g>
</g>
</svg>
