<svg width="110" height="38" viewBox="0 0 110 38" fill="none" xmlns="http://www.w3.org/2000/svg">
<g filter="url(#filter0_dd_336_17361)">
<g clip-path="url(#clip0_336_17361)">
<rect x="3" y="2" width="32" height="32" rx="8" fill="white"/>
<rect x="3" y="2" width="32" height="32" rx="8" fill="url(#paint0_linear_336_17361)"/>
<path fill-rule="evenodd" clip-rule="evenodd" d="M18.9998 4.03884C11.2892 4.03884 5.03861 10.2895 5.03861 18C5.03861 25.7105 11.2892 31.9612 18.9998 31.9612C26.7103 31.9612 32.9609 25.7105 32.9609 18C32.9609 10.2895 26.7103 4.03884 18.9998 4.03884ZM4.96094 18C4.96094 10.2466 11.2463 3.96117 18.9998 3.96117C26.7532 3.96117 33.0386 10.2466 33.0386 18C33.0386 25.7534 26.7532 32.0388 18.9998 32.0388C11.2463 32.0388 4.96094 25.7534 4.96094 18Z" fill="#D0D5DD"/>
<path fill-rule="evenodd" clip-rule="evenodd" d="M19 14.0779C16.8338 14.0779 15.0777 15.834 15.0777 18.0002C15.0777 20.1665 16.8338 21.9226 19 21.9226C21.1662 21.9226 22.9223 20.1665 22.9223 18.0002C22.9223 15.834 21.1662 14.0779 19 14.0779ZM15 18.0002C15 15.7911 16.7909 14.0002 19 14.0002C21.2091 14.0002 23 15.7911 23 18.0002C23 20.2094 21.2091 22.0002 19 22.0002C16.7909 22.0002 15 20.2094 15 18.0002Z" fill="#D0D5DD"/>
<path fill-rule="evenodd" clip-rule="evenodd" d="M19.0004 15.3201C17.5205 15.3201 16.3208 16.5198 16.3208 17.9997C16.3208 19.4796 17.5205 20.6793 19.0004 20.6793C20.4804 20.6793 21.6801 19.4796 21.6801 17.9997C21.6801 16.5198 20.4804 15.3201 19.0004 15.3201ZM16.2432 17.9997C16.2432 16.4769 17.4776 15.2424 19.0004 15.2424C20.5233 15.2424 21.7577 16.4769 21.7577 17.9997C21.7577 19.5225 20.5233 20.757 19.0004 20.757C17.4776 20.757 16.2432 19.5225 16.2432 17.9997Z" fill="#D0D5DD"/>
<path d="M18.9609 2H19.0386V34H18.9609V2Z" fill="#D0D5DD"/>
<path d="M35 17.9609L35 18.0386L3 18.0386L3 17.9609L35 17.9609Z" fill="#D0D5DD"/>
<path d="M29.6016 2H29.6792V34H29.6016V2Z" fill="#D0D5DD"/>
<path d="M13.6406 2H13.7183V34H13.6406V2Z" fill="#D0D5DD"/>
<path d="M24.2812 2H24.3589V34H24.2812V2Z" fill="#D0D5DD"/>
<path d="M8.32031 2H8.39798V34H8.32031V2Z" fill="#D0D5DD"/>
<path d="M35 28.6016L35 28.6792L3 28.6792L3 28.6016L35 28.6016Z" fill="#D0D5DD"/>
<path d="M35 12.6406L35 12.7183L3 12.7183L3 12.6406L35 12.6406Z" fill="#D0D5DD"/>
<path d="M35 23.2812L35 23.3589L3 23.3589L3 23.2812L35 23.2812Z" fill="#D0D5DD"/>
<path d="M35 7.32031L35 7.39798L3 7.39798L3 7.32031L35 7.32031Z" fill="#D0D5DD"/>
<g filter="url(#filter1_dd_336_17361)">
<circle cx="19" cy="18" r="8" fill="url(#paint1_linear_336_17361)"/>
</g>
<g filter="url(#filter2_b_336_17361)">
<path d="M3 18H35V21.2C35 25.6804 35 27.9206 34.1281 29.6319C33.3611 31.1372 32.1372 32.3611 30.6319 33.1281C28.9206 34 26.6804 34 22.2 34H15.8C11.3196 34 9.07937 34 7.36808 33.1281C5.86278 32.3611 4.63893 31.1372 3.87195 29.6319C3 27.9206 3 25.6804 3 21.2V18Z" fill="white" fill-opacity="0.2"/>
</g>
</g>
<rect x="3.1" y="2.1" width="31.8" height="31.8" rx="7.9" stroke="#D0D5DD" stroke-width="0.2"/>
</g>
<path d="M48.264 11.8C49.2987 11.8 50.1573 12.1467 50.84 12.84C51.5333 13.5227 51.88 14.376 51.88 15.4C51.88 16.4133 51.5333 17.2667 50.84 17.96C50.1573 18.6533 49.2987 19 48.264 19H45.688V23H44.2V11.8H48.264ZM48.264 17.608C48.8827 17.608 49.3947 17.4 49.8 16.984C50.2053 16.5573 50.408 16.0293 50.408 15.4C50.408 14.76 50.2053 14.232 49.8 13.816C49.3947 13.4 48.8827 13.192 48.264 13.192H45.688V17.608H48.264ZM54.7136 16.344C55.1723 15.352 56.0043 14.856 57.2096 14.856V16.312C56.527 16.28 55.9403 16.4613 55.4496 16.856C54.959 17.2507 54.7136 17.8853 54.7136 18.76V23H53.3216V15H54.7136V16.344ZM59.1101 19.64C59.2488 20.3547 59.5741 20.9093 60.0861 21.304C60.6088 21.6987 61.2488 21.896 62.0061 21.896C63.0621 21.896 63.8301 21.5067 64.3101 20.728L65.4941 21.4C64.7155 22.6053 63.5421 23.208 61.9741 23.208C60.7048 23.208 59.6701 22.8133 58.8701 22.024C58.0808 21.224 57.6861 20.216 57.6861 19C57.6861 17.7947 58.0755 16.792 58.8541 15.992C59.6328 15.192 60.6408 14.792 61.8781 14.792C63.0515 14.792 64.0061 15.208 64.7421 16.04C65.4888 16.8613 65.8621 17.8533 65.8621 19.016C65.8621 19.2187 65.8461 19.4267 65.8141 19.64H59.1101ZM61.8781 16.104C61.1315 16.104 60.5128 16.3173 60.0221 16.744C59.5315 17.16 59.2275 17.72 59.1101 18.424H64.4541C64.3368 17.6667 64.0381 17.0907 63.5581 16.696C63.0781 16.3013 62.5181 16.104 61.8781 16.104ZM68.3498 17.16C68.3498 17.4693 68.5044 17.72 68.8138 17.912C69.1231 18.0933 69.4964 18.2427 69.9338 18.36C70.3711 18.4667 70.8084 18.5947 71.2458 18.744C71.6831 18.8827 72.0564 19.128 72.3658 19.48C72.6751 19.8213 72.8298 20.264 72.8298 20.808C72.8298 21.5333 72.5471 22.1147 71.9818 22.552C71.4271 22.9893 70.7124 23.208 69.8378 23.208C69.0591 23.208 68.3924 23.0373 67.8378 22.696C67.2831 22.3547 66.8884 21.9013 66.6538 21.336L67.8538 20.648C67.9818 21.032 68.2218 21.336 68.5738 21.56C68.9258 21.784 69.3471 21.896 69.8378 21.896C70.2964 21.896 70.6751 21.8107 70.9738 21.64C71.2724 21.4587 71.4218 21.1813 71.4218 20.808C71.4218 20.4987 71.2671 20.2533 70.9578 20.072C70.6484 19.88 70.2751 19.7307 69.8378 19.624C69.4004 19.5067 68.9631 19.3733 68.5258 19.224C68.0884 19.0747 67.7151 18.8293 67.4058 18.488C67.0964 18.1467 66.9418 17.7093 66.9418 17.176C66.9418 16.4827 67.2084 15.912 67.7418 15.464C68.2858 15.016 68.9631 14.792 69.7738 14.792C70.4244 14.792 71.0004 14.9413 71.5018 15.24C72.0138 15.528 72.3978 15.9333 72.6538 16.456L71.4858 17.112C71.1978 16.4293 70.6271 16.088 69.7738 16.088C69.3791 16.088 69.0431 16.184 68.7658 16.376C68.4884 16.5573 68.3498 16.8187 68.3498 17.16ZM75.2351 19.64C75.3738 20.3547 75.6991 20.9093 76.2111 21.304C76.7338 21.6987 77.3738 21.896 78.1311 21.896C79.1871 21.896 79.9551 21.5067 80.4351 20.728L81.6191 21.4C80.8405 22.6053 79.6671 23.208 78.0991 23.208C76.8298 23.208 75.7951 22.8133 74.9951 22.024C74.2058 21.224 73.8111 20.216 73.8111 19C73.8111 17.7947 74.2005 16.792 74.9791 15.992C75.7578 15.192 76.7658 14.792 78.0031 14.792C79.1765 14.792 80.1311 15.208 80.8671 16.04C81.6138 16.8613 81.9871 17.8533 81.9871 19.016C81.9871 19.2187 81.9711 19.4267 81.9391 19.64H75.2351ZM78.0031 16.104C77.2565 16.104 76.6378 16.3173 76.1471 16.744C75.6565 17.16 75.3525 17.72 75.2351 18.424H80.5791C80.4618 17.6667 80.1631 17.0907 79.6831 16.696C79.2031 16.3013 78.6431 16.104 78.0031 16.104ZM87.5713 14.792C88.5099 14.792 89.2619 15.0907 89.8273 15.688C90.3926 16.2747 90.6753 17.0747 90.6753 18.088V23H89.2833V18.168C89.2833 17.5173 89.1073 17.016 88.7553 16.664C88.4033 16.3013 87.9179 16.12 87.2993 16.12C86.6059 16.12 86.0459 16.3387 85.6193 16.776C85.1926 17.2027 84.9793 17.864 84.9793 18.76V23H83.5872V15H84.9793V16.152C85.5446 15.2453 86.4086 14.792 87.5713 14.792ZM96.3785 23.208C95.1732 23.208 94.1705 22.808 93.3705 22.008C92.5705 21.1973 92.1705 20.1947 92.1705 19C92.1705 17.8053 92.5705 16.808 93.3705 16.008C94.1705 15.1973 95.1732 14.792 96.3785 14.792C97.1678 14.792 97.8772 14.984 98.5065 15.368C99.1358 15.7413 99.6052 16.248 99.9145 16.888L98.7465 17.56C98.5438 17.1333 98.2292 16.792 97.8025 16.536C97.3865 16.28 96.9118 16.152 96.3785 16.152C95.5785 16.152 94.9065 16.424 94.3625 16.968C93.8292 17.512 93.5625 18.1893 93.5625 19C93.5625 19.8 93.8292 20.472 94.3625 21.016C94.9065 21.56 95.5785 21.832 96.3785 21.832C96.9118 21.832 97.3918 21.7093 97.8185 21.464C98.2452 21.208 98.5705 20.8667 98.7945 20.44L99.9785 21.128C99.6372 21.7573 99.1465 22.264 98.5065 22.648C97.8665 23.0213 97.1572 23.208 96.3785 23.208ZM102.22 19.64C102.358 20.3547 102.684 20.9093 103.196 21.304C103.718 21.6987 104.358 21.896 105.116 21.896C106.172 21.896 106.94 21.5067 107.42 20.728L108.604 21.4C107.825 22.6053 106.652 23.208 105.084 23.208C103.814 23.208 102.78 22.8133 101.98 22.024C101.19 21.224 100.796 20.216 100.796 19C100.796 17.7947 101.185 16.792 101.964 15.992C102.742 15.192 103.75 14.792 104.988 14.792C106.161 14.792 107.116 15.208 107.852 16.04C108.598 16.8613 108.972 17.8533 108.972 19.016C108.972 19.2187 108.956 19.4267 108.924 19.64H102.22ZM104.988 16.104C104.241 16.104 103.622 16.3173 103.132 16.744C102.641 17.16 102.337 17.72 102.22 18.424H107.564C107.446 17.6667 107.148 17.0907 106.668 16.696C106.188 16.3013 105.628 16.104 104.988 16.104Z" fill="black"/>
<defs>
<filter id="filter0_dd_336_17361" x="0" y="0" width="38" height="38" filterUnits="userSpaceOnUse" color-interpolation-filters="sRGB">
<feFlood flood-opacity="0" result="BackgroundImageFix"/>
<feColorMatrix in="SourceAlpha" type="matrix" values="0 0 0 0 0 0 0 0 0 0 0 0 0 0 0 0 0 0 127 0" result="hardAlpha"/>
<feOffset dy="1"/>
<feGaussianBlur stdDeviation="1"/>
<feColorMatrix type="matrix" values="0 0 0 0 0.0627451 0 0 0 0 0.0941176 0 0 0 0 0.156863 0 0 0 0.06 0"/>
<feBlend mode="normal" in2="BackgroundImageFix" result="effect1_dropShadow_336_17361"/>
<feColorMatrix in="SourceAlpha" type="matrix" values="0 0 0 0 0 0 0 0 0 0 0 0 0 0 0 0 0 0 127 0" result="hardAlpha"/>
<feOffset dy="1"/>
<feGaussianBlur stdDeviation="1.5"/>
<feColorMatrix type="matrix" values="0 0 0 0 0.0627451 0 0 0 0 0.0941176 0 0 0 0 0.156863 0 0 0 0.1 0"/>
<feBlend mode="normal" in2="effect1_dropShadow_336_17361" result="effect2_dropShadow_336_17361"/>
<feBlend mode="normal" in="SourceGraphic" in2="effect2_dropShadow_336_17361" result="shape"/>
</filter>
<filter id="filter1_dd_336_17361" x="8" y="8" width="22" height="22" filterUnits="userSpaceOnUse" color-interpolation-filters="sRGB">
<feFlood flood-opacity="0" result="BackgroundImageFix"/>
<feColorMatrix in="SourceAlpha" type="matrix" values="0 0 0 0 0 0 0 0 0 0 0 0 0 0 0 0 0 0 127 0" result="hardAlpha"/>
<feOffset dy="1"/>
<feGaussianBlur stdDeviation="1"/>
<feColorMatrix type="matrix" values="0 0 0 0 0.0627451 0 0 0 0 0.0941176 0 0 0 0 0.156863 0 0 0 0.06 0"/>
<feBlend mode="normal" in2="BackgroundImageFix" result="effect1_dropShadow_336_17361"/>
<feColorMatrix in="SourceAlpha" type="matrix" values="0 0 0 0 0 0 0 0 0 0 0 0 0 0 0 0 0 0 127 0" result="hardAlpha"/>
<feOffset dy="1"/>
<feGaussianBlur stdDeviation="1.5"/>
<feColorMatrix type="matrix" values="0 0 0 0 0.0627451 0 0 0 0 0.0941176 0 0 0 0 0.156863 0 0 0 0.1 0"/>
<feBlend mode="normal" in2="effect1_dropShadow_336_17361" result="effect2_dropShadow_336_17361"/>
<feBlend mode="normal" in="SourceGraphic" in2="effect2_dropShadow_336_17361" result="shape"/>
</filter>
<filter id="filter2_b_336_17361" x="-2" y="13" width="42" height="26" filterUnits="userSpaceOnUse" color-interpolation-filters="sRGB">
<feFlood flood-opacity="0" result="BackgroundImageFix"/>
<feGaussianBlur in="BackgroundImageFix" stdDeviation="2.5"/>
<feComposite in2="SourceAlpha" operator="in" result="effect1_backgroundBlur_336_17361"/>
<feBlend mode="normal" in="SourceGraphic" in2="effect1_backgroundBlur_336_17361" result="shape"/>
</filter>
<linearGradient id="paint0_linear_336_17361" x1="19" y1="2" x2="19" y2="34" gradientUnits="userSpaceOnUse">
<stop stop-color="white"/>
<stop offset="1" stop-color="#D0D5DD"/>
</linearGradient>
<linearGradient id="paint1_linear_336_17361" x1="15" y1="26" x2="23" y2="10" gradientUnits="userSpaceOnUse">
<stop stop-color="#53389E"/>
<stop offset="1" stop-color="#6941C6"/>
</linearGradient>
<clipPath id="clip0_336_17361">
<rect x="3" y="2" width="32" height="32" rx="8" fill="white"/>
</clipPath>
</defs>
</svg>
