<svg width="20" height="20" viewBox="0 0 20 20" fill="none" xmlns="http://www.w3.org/2000/svg">
<path d="M12.0833 7.56944L11.9636 7.46963C11.664 7.22003 11.2865 7.08333 10.8966 7.08333H8.95833C8.15292 7.08333 7.5 7.73625 7.5 8.54167C7.5 9.34708 8.15292 10 8.95833 10H11.0417C11.8471 10 12.5 10.6529 12.5 11.4583C12.5 12.2637 11.8471 12.9167 11.0417 12.9167H8.67665C8.24275 12.9167 7.82595 12.7475 7.51485 12.445L7.5 12.4306M10 6.66667V5.83333M10 14.1667V13.3333M17.5 10C17.5 14.1421 14.1421 17.5 10 17.5C5.85786 17.5 2.5 14.1421 2.5 10C2.5 5.85786 5.85786 2.5 10 2.5C14.1421 2.5 17.5 5.85786 17.5 10Z" stroke="url(#paint0_linear_17_414393)" stroke-width="1.5" stroke-linecap="round" stroke-linejoin="round"/>
<defs>
<linearGradient id="paint0_linear_17_414393" x1="2.5" y1="17.5" x2="19.5096" y2="14.6975" gradientUnits="userSpaceOnUse">
<stop stop-color="#A752E0"/>
<stop offset="1" stop-color="#F042BC"/>
</linearGradient>
</defs>
</svg>
