<svg width="19" height="23" viewBox="0 0 19 23" fill="none" xmlns="http://www.w3.org/2000/svg">
<g id="PayPal">
<path id="Fill 7" fill-rule="evenodd" clip-rule="evenodd" d="M5.35703 21.7472L5.7249 19.332L4.90541 19.3122H0.992188L3.71174 1.48952C3.72021 1.43555 3.7476 1.38545 3.7876 1.34981C3.8278 1.31417 3.87903 1.29462 3.93262 1.29462H10.5309C12.7216 1.29462 14.2333 1.76568 15.0225 2.69558C15.3925 3.13181 15.6282 3.5878 15.7423 4.08941C15.8619 4.61587 15.8638 5.24476 15.7472 6.01194L15.7387 6.06775V6.55938L16.1087 6.77607C16.4203 6.94694 16.6679 7.14245 16.8579 7.36627C17.1743 7.73937 17.3791 8.21348 17.4656 8.77538C17.555 9.35336 17.5255 10.0413 17.3791 10.8201C17.2102 11.7158 16.9373 12.496 16.5686 13.1343C16.2297 13.7224 15.7978 14.2104 15.2849 14.5884C14.7953 14.9476 14.2136 15.2203 13.5559 15.3949C12.9185 15.5663 12.1918 15.6529 11.3947 15.6529H10.8813C10.5142 15.6529 10.1575 15.7896 9.87753 16.0346C9.59675 16.2846 9.41114 16.6264 9.35419 17.0001L9.31538 17.2176L8.66534 21.4747L8.63598 21.6309C8.6281 21.6804 8.6147 21.705 8.595 21.7217C8.57746 21.737 8.55224 21.7472 8.52761 21.7472H5.35703Z" fill="#28356A"/>
<path id="Fill 8" fill-rule="evenodd" clip-rule="evenodd" d="M16.4595 6.12451C16.44 6.25465 16.4173 6.38764 16.3921 6.52429C15.5219 11.142 12.5449 12.7373 8.74276 12.7373H6.80684C6.34182 12.7373 5.94991 13.0861 5.8776 13.5603L4.6057 21.899C4.5586 22.2104 4.79072 22.4909 5.09456 22.4909H8.52819C8.93468 22.4909 9.28009 22.1856 9.34413 21.7711L9.37783 21.5909L10.0243 17.3505L10.0659 17.118C10.1291 16.7021 10.4753 16.3966 10.8818 16.3966H11.3953C14.722 16.3966 17.3263 15.0007 18.0874 10.961C18.4052 9.27347 18.2407 7.86436 17.3994 6.87336C17.1448 6.5746 16.8289 6.32654 16.4595 6.12451Z" fill="#298FC2"/>
<path id="Fill 9" fill-rule="evenodd" clip-rule="evenodd" d="M15.5487 5.74943C15.4157 5.70931 15.2785 5.67306 15.1379 5.64027C14.9964 5.6083 14.8516 5.57999 14.7024 5.55514C14.1804 5.46798 13.6084 5.42664 12.9958 5.42664H7.82411C7.69662 5.42664 7.57564 5.45637 7.46746 5.51014C7.22885 5.62866 7.05171 5.86206 7.00875 6.14779L5.90848 13.3503L5.87695 13.5603C5.94927 13.0862 6.34118 12.7373 6.8062 12.7373H8.74212C12.5442 12.7373 15.5213 11.1413 16.3914 6.52435C16.4174 6.3877 16.4393 6.25471 16.4588 6.12457C16.2387 6.0038 16.0003 5.90055 15.7436 5.81257C15.6801 5.79078 15.6147 5.7698 15.5487 5.74943Z" fill="#22284F"/>
<path id="Fill 11" fill-rule="evenodd" clip-rule="evenodd" d="M7.00906 6.14779C7.05201 5.86205 7.22915 5.62866 7.46777 5.51095C7.57673 5.45698 7.69693 5.42725 7.82441 5.42725H12.9961C13.6087 5.42725 14.1807 5.46879 14.7027 5.55596C14.8519 5.5806 14.9967 5.60911 15.1382 5.64109C15.2788 5.67367 15.416 5.71013 15.549 5.75004C15.615 5.77041 15.6804 5.79159 15.7445 5.81257C16.0012 5.90055 16.2398 6.00461 16.4599 6.12457C16.7188 4.41812 16.4577 3.25625 15.5652 2.20416C14.5809 1.04575 12.8048 0.550049 10.5319 0.550049H3.93345C3.46922 0.550049 3.07317 0.898915 3.00145 1.37384L0.253127 19.3798C0.198941 19.736 0.464749 20.0574 0.812328 20.0574H4.88594L7.00906 6.14779Z" fill="#28356A"/>
</g>
</svg>
