<svg width="21" height="20" viewBox="0 0 21 20" fill="none" xmlns="http://www.w3.org/2000/svg">
<g id="pencil-02">
<path id="Icon" d="M15.4998 1.6665L18.8332 4.99984M2.1665 18.3332L3.23017 14.4331C3.29957 14.1786 3.33426 14.0514 3.38753 13.9327C3.43482 13.8274 3.49294 13.7273 3.56093 13.6339C3.63752 13.5288 3.73076 13.4356 3.91726 13.2491L12.5284 4.63791C12.6934 4.4729 12.7759 4.3904 12.8711 4.35949C12.9548 4.3323 13.0449 4.3323 13.1286 4.35949C13.2237 4.3904 13.3062 4.4729 13.4712 4.63791L15.8618 7.02843C16.0268 7.19344 16.1093 7.27594 16.1402 7.37108C16.1674 7.45477 16.1674 7.54491 16.1402 7.62859C16.1093 7.72373 16.0268 7.80624 15.8618 7.97124L7.25059 16.5824C7.0641 16.7689 6.97085 16.8622 6.86574 16.9387C6.77241 17.0067 6.67227 17.0649 6.56693 17.1121C6.44829 17.1654 6.32107 17.2001 6.06662 17.2695L2.1665 18.3332Z" stroke="white" stroke-width="1.66667" stroke-linecap="round" stroke-linejoin="round"/>
</g>
</svg>
