<svg width="21" height="20" viewBox="0 0 21 20" fill="none" xmlns="http://www.w3.org/2000/svg">
<g id="qr-code-02">
<path id="Icon" d="M5.91667 5.41667H5.925M15.0833 5.41667H15.0917M5.91667 14.5833H5.925M11.3333 10.8333H11.3417M15.0833 14.5833H15.0917M14.6667 17.5H18V14.1667M12.1667 13.75V17.5M18 11.6667H14.25M13.5 8.33333H16.6667C17.1334 8.33333 17.3667 8.33333 17.545 8.24251C17.7018 8.16261 17.8293 8.03513 17.9092 7.87833C18 7.70007 18 7.46671 18 7V3.83333C18 3.36662 18 3.13327 17.9092 2.95501C17.8293 2.79821 17.7018 2.67072 17.545 2.59083C17.3667 2.5 17.1334 2.5 16.6667 2.5H13.5C13.0333 2.5 12.7999 2.5 12.6217 2.59083C12.4649 2.67072 12.3374 2.79821 12.2575 2.95501C12.1667 3.13327 12.1667 3.36662 12.1667 3.83333V7C12.1667 7.46671 12.1667 7.70007 12.2575 7.87833C12.3374 8.03513 12.4649 8.16261 12.6217 8.24251C12.7999 8.33333 13.0333 8.33333 13.5 8.33333ZM4.33333 8.33333H7.5C7.96671 8.33333 8.20007 8.33333 8.37833 8.24251C8.53513 8.16261 8.66261 8.03513 8.74251 7.87833C8.83333 7.70007 8.83333 7.46671 8.83333 7V3.83333C8.83333 3.36662 8.83333 3.13327 8.74251 2.95501C8.66261 2.79821 8.53513 2.67072 8.37833 2.59083C8.20007 2.5 7.96671 2.5 7.5 2.5H4.33333C3.86662 2.5 3.63327 2.5 3.45501 2.59083C3.29821 2.67072 3.17072 2.79821 3.09083 2.95501C3 3.13327 3 3.36662 3 3.83333V7C3 7.46671 3 7.70007 3.09083 7.87833C3.17072 8.03513 3.29821 8.16261 3.45501 8.24251C3.63327 8.33333 3.86662 8.33333 4.33333 8.33333ZM4.33333 17.5H7.5C7.96671 17.5 8.20007 17.5 8.37833 17.4092C8.53513 17.3293 8.66261 17.2018 8.74251 17.045C8.83333 16.8667 8.83333 16.6334 8.83333 16.1667V13C8.83333 12.5333 8.83333 12.2999 8.74251 12.1217C8.66261 11.9649 8.53513 11.8374 8.37833 11.7575C8.20007 11.6667 7.96671 11.6667 7.5 11.6667H4.33333C3.86662 11.6667 3.63327 11.6667 3.45501 11.7575C3.29821 11.8374 3.17072 11.9649 3.09083 12.1217C3 12.2999 3 12.5333 3 13V16.1667C3 16.6334 3 16.8667 3.09083 17.045C3.17072 17.2018 3.29821 17.3293 3.45501 17.4092C3.63327 17.5 3.86662 17.5 4.33333 17.5Z" stroke="#344054" stroke-width="1.66667" stroke-linecap="round" stroke-linejoin="round"/>
</g>
</svg>
