<svg width="24" height="24" viewBox="0 0 24 24" fill="none" xmlns="http://www.w3.org/2000/svg">
<path d="M4 6C4 4.89543 4.89543 4 6 4H9C10.1046 4 11 4.89543 11 6V17C11 18.1046 10.1046 19 9 19H6C4.89543 19 4 18.1046 4 17V6Z" fill="#637083"/>
<path d="M13 6C13 4.89543 13.8954 4 15 4H18C19.1046 4 20 4.89543 20 6V11C20 12.1046 19.1046 13 18 13H15C13.8954 13 13 12.1046 13 11V6Z" fill="#F4E9FB"/>
<path d="M4 6C4 4.89543 4.89543 4 6 4H9C10.1046 4 11 4.89543 11 6V17C11 18.1046 10.1046 19 9 19H6C4.89543 19 4 18.1046 4 17V6Z" stroke="#741FAD" stroke-width="1.67"/>
<path d="M13 6C13 4.89543 13.8954 4 15 4H18C19.1046 4 20 4.89543 20 6V11C20 12.1046 19.1046 13 18 13H15C13.8954 13 13 12.1046 13 11V6Z" stroke="#741FAD" stroke-width="1.67"/>
</svg>
