<svg width="20" height="20" viewBox="0 0 20 20" fill="none" xmlns="http://www.w3.org/2000/svg">
<path d="M3.3335 4.99999C3.3335 4.07952 4.07969 3.33333 5.00016 3.33333H7.50016C8.42064 3.33333 9.16683 4.07952 9.16683 4.99999V14.1667C9.16683 15.0871 8.42064 15.8333 7.50016 15.8333H5.00016C4.07969 15.8333 3.3335 15.0871 3.3335 14.1667V4.99999Z" fill="#637083"/>
<path d="M10.8335 4.99999C10.8335 4.07952 11.5797 3.33333 12.5002 3.33333H15.0002C15.9206 3.33333 16.6668 4.07952 16.6668 4.99999V9.16666C16.6668 10.0871 15.9206 10.8333 15.0002 10.8333H12.5002C11.5797 10.8333 10.8335 10.0871 10.8335 9.16666V4.99999Z" fill="#CED2DA"/>
</svg>
