<svg width="20" height="20" viewBox="0 0 20 20" fill="none" xmlns="http://www.w3.org/2000/svg">
<path d="M8.33335 3.33333C8.33335 2.8731 8.70644 2.5 9.16668 2.5H10.8333C11.2936 2.5 11.6667 2.8731 11.6667 3.33333V4.40823C12.0546 4.52369 12.4257 4.67842 12.7752 4.86781L13.5355 4.10742C13.861 3.78199 14.3886 3.78199 14.714 4.10742L15.8926 5.28594C16.218 5.61137 16.218 6.13901 15.8926 6.46445L15.1322 7.22482C15.3216 7.57434 15.4763 7.94538 15.5918 8.33333H16.6667C17.1269 8.33333 17.5 8.70643 17.5 9.16667V10.8333C17.5 11.2936 17.1269 11.6667 16.6667 11.6667H15.5918C15.4763 12.0546 15.3216 12.4257 15.1322 12.7752L15.8926 13.5356C16.218 13.861 16.218 14.3886 15.8926 14.7141L14.7141 15.8926C14.3886 16.218 13.861 16.218 13.5355 15.8926L12.7752 15.1322C12.4257 15.3216 12.0546 15.4763 11.6667 15.5918V16.6667C11.6667 17.1269 11.2936 17.5 10.8333 17.5H9.16668C8.70644 17.5 8.33335 17.1269 8.33335 16.6667V15.5918C7.94539 15.4763 7.57435 15.3216 7.22483 15.1322L6.46447 15.8925C6.13903 16.218 5.6114 16.218 5.28596 15.8925L4.10745 14.714C3.78201 14.3886 3.78201 13.861 4.10745 13.5355L4.86782 12.7751C4.67843 12.4256 4.5237 12.0546 4.40824 11.6667H3.33333C2.8731 11.6667 2.5 11.2936 2.5 10.8333V9.16667C2.5 8.70643 2.8731 8.33333 3.33333 8.33333H4.40825C4.5237 7.94539 4.67843 7.57436 4.86782 7.22485L4.10745 6.46448C3.78201 6.13905 3.78201 5.61141 4.10745 5.28597L5.28596 4.10746C5.6114 3.78202 6.13904 3.78202 6.46447 4.10746L7.22484 4.86782C7.57435 4.67843 7.94539 4.52369 8.33335 4.40823V3.33333Z" fill="#CED2DA"/>
<path d="M12.5 10C12.5 11.3807 11.3807 12.5 10 12.5C8.6193 12.5 7.50001 11.3807 7.50001 10C7.50001 8.61929 8.6193 7.5 10 7.5C11.3807 7.5 12.5 8.61929 12.5 10Z" fill="#637083"/>
</svg>
