<svg width="18" height="18" viewBox="0 0 18 18" fill="none" xmlns="http://www.w3.org/2000/svg">
<path d="M11.4106 5.54471L6.5129 7.99355M6.5129 7.99355C6.1435 7.25619 5.38086 6.75 4.5 6.75C3.25736 6.75 2.25 7.75736 2.25 9C2.25 10.2426 3.25736 11.25 4.5 11.25C5.38086 11.25 6.1435 10.7438 6.5129 10.0065M6.5129 7.99355C6.66462 8.29639 6.75 8.63822 6.75 9C6.75 9.36178 6.66462 9.70361 6.5129 10.0065M11.4106 12.4553L6.5129 10.0065M15.75 4.5C15.75 5.74264 14.7426 6.75 13.5 6.75C12.2574 6.75 11.25 5.74264 11.25 4.5C11.25 3.25736 12.2574 2.25 13.5 2.25C14.7426 2.25 15.75 3.25736 15.75 4.5ZM15.75 13.5C15.75 14.7426 14.7426 15.75 13.5 15.75C12.2574 15.75 11.25 14.7426 11.25 13.5C11.25 12.2574 12.2574 11.25 13.5 11.25C14.7426 11.25 15.75 12.2574 15.75 13.5Z" stroke="url(#paint0_linear_17_416042)" stroke-width="1.33" stroke-linecap="round"/>
<defs>
<linearGradient id="paint0_linear_17_416042" x1="2.25" y1="15.75" x2="17.6832" y2="12.9657" gradientUnits="userSpaceOnUse">
<stop stop-color="#1975FF"/>
<stop offset="1" stop-color="#33A9FF"/>
</linearGradient>
</defs>
</svg>
