<svg width="12" height="12" viewBox="0 0 12 12" fill="none" xmlns="http://www.w3.org/2000/svg">
<g id="Verification Badge">
<path id="Star 1" d="M6.17247 0.667014L6 0.577684L5.82753 0.667014L4.49197 1.35876L3.00488 1.58415L2.81284 1.61325L2.72582 1.7869L2.05193 3.13156L0.981325 4.18799L0.843072 4.32441L0.874734 4.51604L1.11992 6L0.874734 7.48396L0.843072 7.67559L0.981325 7.81201L2.05193 8.86844L2.72582 10.2131L2.81284 10.3867L3.00488 10.4159L4.49197 10.6412L5.82753 11.333L6 11.4223L6.17247 11.333L7.50803 10.6412L8.99512 10.4159L9.18716 10.3867L9.27418 10.2131L9.94807 8.86844L11.0187 7.81201L11.1569 7.67559L11.1253 7.48396L10.8801 6L11.1253 4.51604L11.1569 4.32441L11.0187 4.18799L9.94807 3.13156L9.27418 1.7869L9.18716 1.61325L8.99512 1.58415L7.50803 1.35876L6.17247 0.667014Z" fill="#0095FF" stroke="white" stroke-width="0.75"/>
<path id="Vector" d="M4 6.5L5.16667 7.66665L8 5" stroke="white" stroke-width="0.75" stroke-linecap="round" stroke-linejoin="round"/>
</g>
</svg>
